# AST/ASF file generated using VICON BodyLanguage
# -----------------------------------------------
:version 1.10
:name VICON
:units
  mass 1.0
  length 0.45
  angle deg
:documentation
   .ast/.asf automatically generated from VICON data using
   VICON BodyBuilder and BodyLanguage model FoxedUp or BRILLIANT.MOD
:root
   order TX TY TZ RX RY RZ
   axis XYZ
   position 0 0 0  
   orientation 0 0 0 
:bonedata
  begin
     id 1 
     name lhipjoint
     direction 0.660183 -0.676772 0.325788 
     length 2.75133 
     axis 0 0 0  XYZ
  end
  begin
     id 2 
     name lfemur
     direction 0.34202 -0.939693 0  
     length 7.70317  
     axis 0 0 20  XYZ
    dof rx ry rz
    limits (-160.0 20.0)
           (-70.0 70.0)
           (-60.0 70.0)
  end
  begin
     id 3 
     name ltibia
     direction 0.342105 -0.939662 0   
     length 7.18701   
     axis 0 0 20   XYZ
    dof rx
    limits (-10.0 170.0)
  end
  begin
     id 4 
     name lfoot
     direction 0.14163 -0.389126 0.910232   
     length 2.41719   
     axis -90 7.62852e-016 20   XYZ
    dof rx rz
    limits (-45.0 90.0)
           (-70.0 20.0)
  end
  begin
     id 5 
     name ltoes
     direction 1.53533e-011 -4.21926e-011 1   
     length 1.18611   
     axis -90 7.62852e-016 20   XYZ
    dof rx
    limits (-90.0 20.0)
  end
  begin
     id 6 
     name rhipjoint
     direction -0.6658 -0.67229 0.323631   
     length 2.76968  
     axis 0 0 0  XYZ 
  end
  begin
     id 7 
     name rfemur
     direction -0.34202 -0.939693 0   
     length 7.92547   
     axis 0 0 -20   XYZ
    dof rx ry rz
    limits (-160.0 20.0)
           (-70.0 70.0)
           (-70.0 60.0)
  end
  begin
     id 8 
     name rtibia
     direction -0.342022 -0.939692 0   
     length 7.22641   
     axis 0 0 -20   XYZ
    dof rx
    limits (-10.0 170.0)
 end
 begin
     id 9 
     name rfoot
     direction -0.105675 -0.29034 0.951071   
     length 2.48149  
     axis -90 -7.62852e-016 -20   XYZ
    dof rx rz
    limits (-45.0 90.0)
           (-20.0 70.0)
  end
  begin
     id 10 
     name rtoes
     direction -1.5349e-011 -4.21859e-011 1   
     length 1.23343   
     axis -90 -7.62852e-016 -20   XYZ
    dof rx
    limits (-90.0 20.0)
  end
  begin
     id 11 
     name lowerback
     direction 0.0104173 0.993624 -0.112266   
     length 2.00527   
     axis 0 0 0   XYZ
    dof rx ry rz
    limits (-20.0 45.0)
           (-30.0 30.0)
           (-30.0 30.0)
  end
  begin
     id 12 
     name upperback
     direction 0.00733149 0.999856 -0.0152913   
     length 2.01385   
     axis 0 0 0   XYZ
    dof rx ry rz
    limits (-20.0 45.0)
           (-30.0 30.0)
           (-30.0 30.0)
  end
  begin
     id 13 
     name thorax
     direction 0.0026304 0.999318 0.036841   
     length 2.03734   
     axis 0 0 0   XYZ
    dof rx ry rz
    limits (-20.0 45.0)
           (-30.0 30.0)
           (-30.0 30.0)
  end
  begin
     id 14 
     name lowerneck
     direction 0.0293154 0.998757 0.0403082   
     length 1.65303   
     axis 0 0 0   XYZ
    dof rx ry rz
    limits (-20.0 45.0)
           (-30.0 30.0)
           (-30.0 30.0)
  end
  begin
     id 15 
     name upperneck
     direction -0.0376619 0.998184 -0.0470083   
     length 1.60926   
     axis 0 0 0   XYZ
    dof rx ry rz
    limits (-20.0 45.0)
           (-30.0 30.0)
           (-30.0 30.0)
  end
  begin
     id 16
     name head
     direction -0.0170133 0.999635 -0.0209778  
     length 1.73625  
     axis 0 0 0   XYZ
    dof rx ry rz
    limits (-20.0 45.0)
           (-30.0 30.0)
           (-30.0 30.0)
  end
  begin
     id 17 
     name lclavicle
     direction 0.919857 0.39181 -0.0186333  
     length 3.75313  
     axis 0 0 0   XYZ
    dof ry rz
    limits (-20.0 10.0)
           (0.0 20.0)
  end
  begin
     id 18 
     name lhumerus
     direction 1 -4.48988e-011 1.44029e-027   
     length 5.49313   
     axis 180 -30 -90   XYZ
    dof rx ry rz
    limits (-60.0 90.0)
           (-90.0 90.0)
           (-90.0 90.0)
  end
  begin
     id 19
     name lradius
     direction 1 -4.48924e-011 7.46281e-027   
     length 3.29037   
     axis 180 -30 -90   XYZ
    dof rx
    limits (-10.0 170.0)
  end
  begin
     id 20
     name lwrist
     direction 1 -4.48955e-011 2.19879e-026   
     length 1.64519   
     axis -1.34358e-014 90 90   XYZ
    dof ry
    limits (-180.0 0.0)
 end
  begin
     id 21 
     name lhand
     direction 1 -4.48978e-011 4.39747e-026   
     length 0.729656   
     axis -2.80598e-014 90 90   XYZ
    dof rx rz
    limits (-90.0 90.0)
           (-45.0 45.0)
  end
  begin
     id 22 
     name lfingers
     direction 1 -4.49071e-011 8.79411e-026   
     length 0.588268   
     axis -5.61193e-014 90 90   XYZ
    dof rx
    limits (0.0 90.0)
  end
  begin
     id 23
     name lthumb
     direction 0.707107 -6.34817e-011 0.707107   
     length 0.844638   
     axis -90 45 -9.86923e-015   XYZ
    dof rx rz
    limits (-45.0 45.0)
           (-45.0 45.0)
  end
  begin
     id 24 
     name rclavicle
     direction -0.919898 0.388279 0.0550233   
     length 3.7171  
     axis 0 0 0   XYZ 
    dof ry rz
    limits (-10.0 20.0)
           (-20.0 0.0)
  end
  begin
     id 25 
     name rhumerus
     direction -1 -4.48968e-011 9.98372e-028  
     length 5.23684   
     axis 180 30 90   XYZ
    dof rx ry rz
    limits (-90.0 60.0)
           (-90.0 90.0)
           (-90.0 90.0)
  end
  begin
     id 26 
     name rradius
     direction -1 -4.48956e-011 1.01023e-026   
     length 3.38251   
     axis 180 30 90   XYZ
    dof rx
    limits (-10.0 170.0)
  end
  begin
     id 27 
     name rwrist
     direction -1 -4.4892e-011 2.19886e-026   
     length 1.69126   
     axis -1.34358e-014 -90 -90   XYZ
    dof ry
    limits (-180.0 0.0)
  end
  begin
     id 28
     name rhand
     direction -1 -4.49024e-011 4.39727e-026   
     length 0.691454   
     axis -2.80598e-014 -90 -90   XYZ
    dof rx rz
    limits (-90.0 90.0)
           (-45.0 45.0)
  end
  begin
     id 29
     name rfingers
     direction -1 -4.49097e-011 8.79388e-026   
     length 0.557468   
     axis -5.61193e-014 -90 -90   XYZ
    dof rx
    limits (0.0 90.0)
  end
  begin
     id 30
     name rthumb
     direction -0.707107 -6.34938e-011 0.707107   
     length 0.800416   
     axis -90 -45 9.86923e-015   XYZ
    dof rx rz
    limits (-45.0 45.0)
           (-45.0 45.0)
  end
:hierarchy
  begin
    root lhipjoint rhipjoint lowerback
    lhipjoint lfemur
    lfemur ltibia
    ltibia lfoot
    lfoot ltoes
    rhipjoint rfemur
    rfemur rtibia
    rtibia rfoot
    rfoot rtoes
    lowerback upperback
    upperback thorax
    thorax lowerneck lclavicle rclavicle
    lowerneck upperneck
    upperneck head
    lclavicle lhumerus
    lhumerus lradius
    lradius lwrist
    lwrist lhand lthumb
    lhand lfingers
    rclavicle rhumerus
    rhumerus rradius
    rradius rwrist
    rwrist rhand rthumb
    rhand rfingers
  end

#!OML:ASF H:\BabyWalks\Project 1\Capture day 1\Session 1\baby.ASF
:FULLY-SPECIFIED
:DEGREES
306
root -13.3153 17.9123 17.6855 -29.1784 85.3099 -35.9382
lowerback 17.6541 -0.0826562 -4.6187
upperback 4.19509 -0.774494 -1.05704
thorax -5.32664 -0.234899 1.65546
lowerneck -3.60091 0.0926823 3.91271
upperneck 0.0890341 -0.0276511 0.194949
head 0.622137 -0.000315098 -0.587673
rclavicle -7.55382e-015 1.90833e-014
rhumerus -50.7338 9.23311 -87.3352
rradius 42.0643
rwrist -1.46176
rhand -6.17396 -15.1251
rfingers 7.12502
rthumb 19.6651 -44.1504
lclavicle -7.55382e-015 1.90833e-014
lhumerus -41.175 -6.6603 73.36
lradius 72.2336
lwrist 5.86747
lhand -17.3512 3.02829
lfingers 7.12502
lthumb 8.89642 32.8207
rfemur -23.246 3.27888 18.0808
rtibia 35.8386
rfoot -17.3931 8.12292
rtoes -11.6429
lfemur -8.0023 -3.66907 -15.1564
ltibia 32.0404
lfoot -19.6262 -9.01966
ltoes -12.2163
307
root -13.1463 17.9437 17.7202 -30.7398 85.6755 -37.6499
lowerback 17.6189 -0.180555 -4.6105
upperback 4.11409 -0.89977 -0.935001
thorax -5.38503 -0.295593 1.80802
lowerneck -3.6808 0.0620164 3.84615
upperneck 0.240556 -0.0711192 0.00655829
head 0.682288 -0.0227983 -0.636468
rclavicle 2.78299e-015 6.36111e-015
rhumerus -50.8692 9.12812 -87.1337
rradius 41.8786
rwrist -1.1473
rhand -5.61998 -15.1707
rfingers 7.12502
rthumb 20.1976 -44.1407
lclavicle 2.78299e-015 6.36111e-015
lhumerus -41.023 -6.93136 73.4359
lradius 73.5906
lwrist 6.05753
lhand -16.6958 2.31181
lfingers 7.12502
lthumb 9.52888 32.0764
rfemur -23.7056 3.39912 18.0594
rtibia 33.8107
rfoot -17.5104 7.38014
rtoes -11.3538
lfemur -7.56742 -3.83536 -15.0948
ltibia 31.6939
lfoot -18.9108 -9.62197
ltoes -12.8825
308
root -12.9769 17.9697 17.7558 -33.0352 86.0794 -40.0838
lowerback 17.6012 -0.295993 -4.59195
upperback 4.04334 -1.04564 -0.811007
thorax -5.44 -0.366177 1.96144
lowerneck -3.81674 0.0410494 3.82888
upperneck 0.42283 -0.105008 -0.231413
head 0.762137 -0.0408299 -0.709404
rclavicle 1.98785e-015 -1.19271e-014
rhumerus -50.9797 9.03946 -86.9353
rradius 41.6909
rwrist -0.845668
rhand -5.17058 -15.1589
rfingers 7.12502
rthumb 20.6295 -44.0827
lclavicle 1.98785e-015 -1.19271e-014
lhumerus -40.8889 -7.14304 73.4902
lradius 74.8718
lwrist 6.22559
lhand -16.0027 1.85445
lfingers 7.12502
lthumb 10.1975 31.5873
rfemur -24.1318 3.59779 17.9909
rtibia 31.8902
rfoot -17.5742 6.60219
rtoes -11.1105
lfemur -7.18411 -3.98778 -15.0203
ltibia 31.4452
lfoot -18.2115 -10.2737
ltoes -13.4422
309
root -12.8074 17.9897 17.7921 -36.227 86.5084 -43.4024
lowerback 17.5949 -0.426478 -4.56893
upperback 3.98194 -1.20954 -0.681906
thorax -5.48912 -0.445456 2.12185
lowerneck -3.95185 0.0394968 3.82249
upperneck 0.583913 -0.111683 -0.489999
head 0.836208 -0.0461179 -0.790421
rclavicle 2.0276e-014 6.36111e-015
rhumerus -51.0715 8.98302 -86.7363
rradius 41.5151
rwrist -0.552182
rhand -4.79025 -15.1326
rfingers 7.12502
rthumb 20.9949 -44.0163
lclavicle 2.0276e-014 6.36111e-015
lhumerus -40.7844 -7.27542 73.531
lradius 76.0717
lwrist 6.3952
lhand -15.3107 1.62757
lfingers 7.12502
lthumb 10.8651 31.3265
rfemur -24.5387 3.88552 17.8649
rtibia 30.1278
rfoot -17.5554 5.77131
rtoes -10.8541
lfemur -6.85176 -4.11241 -14.9358
ltibia 31.301
lfoot -17.5298 -10.9765
ltoes -13.8896
310
root -12.638 18.0029 17.8288 -40.5136 86.9582 -47.8
lowerback 17.602 -0.566407 -4.542
upperback 3.92364 -1.38551 -0.559686
thorax -5.54085 -0.530336 2.27564
lowerneck -4.10863 0.0408138 3.8704
upperneck 0.75245 -0.116063 -0.802545
head 0.9171 -0.0511486 -0.898135
rclavicle -7.95139e-015 -3.26007e-014
rhumerus -51.1646 8.94223 -86.5453
rradius 41.3556
rwrist -0.278993
rhand -4.48005 -15.0919
rfingers 7.12502
rthumb 21.2929 -43.9422
lclavicle -7.95139e-015 -3.26007e-014
lhumerus -40.7207 -7.34672 73.5565
lradius 77.1761
lwrist 6.60224
lhand -14.6615 1.58864
lfingers 7.12502
lthumb 11.4912 31.2537
rfemur -24.9338 4.26805 17.6617
rtibia 28.5671
rfoot -17.4507 4.87074
rtoes -10.5311
lfemur -6.56438 -4.22093 -14.8576
ltibia 31.2663
lfoot -16.8741 -11.7187
ltoes -14.2512
311
root -12.4682 18.0098 17.8656 -46.4852 87.4109 -53.8639
lowerback 17.6134 -0.71368 -4.5073
upperback 3.87472 -1.56924 -0.445258
thorax -5.584 -0.619088 2.41853
lowerneck -4.20533 0.041493 3.89672
upperneck 0.848147 -0.116694 -1.08066
head 0.96504 -0.0548902 -0.991145
rclavicle 1.94809e-014 -1.11319e-014
rhumerus -51.2546 8.91324 -86.3609
rradius 41.2107
rwrist -0.0466784
rhand -4.24955 -15.0122
rfingers 7.12502
rthumb 21.5143 -43.8374
lclavicle 1.94809e-014 -1.11319e-014
lhumerus -40.6855 -7.3486 73.5653
lradius 78.1579
lwrist 6.87047
lhand -14.0682 1.63934
lfingers 7.12502
lthumb 12.0634 31.2716
rfemur -25.3232 4.73482 17.3874
rtibia 27.2395
rfoot -17.2332 3.92015
rtoes -10.0235
lfemur -6.32201 -4.30206 -14.781
ltibia 31.3512
lfoot -16.2559 -12.508
ltoes -14.5537
312
root -12.2984 18.0091 17.9025 -54.9861 87.8484 -62.4344
lowerback 17.6268 -0.86389 -4.4609
upperback 3.83622 -1.75451 -0.345361
thorax -5.6172 -0.708821 2.53966
lowerneck -4.29981 0.0330717 3.98731
upperneck 0.918698 -0.130666 -1.42064
head 1.00502 -0.0663664 -1.11537
rclavicle -3.97569e-015 -7.95139e-016
rhumerus -51.3469 8.88118 -86.1854
rradius 41.086
rwrist 0.153505
rhand -4.07921 -14.9356
rfingers 7.12502
rthumb 21.6779 -43.742
lclavicle -3.97569e-015 -7.95139e-016
lhumerus -40.6798 -7.2879 73.5587
lradius 79.006
lwrist 7.20479
lhand -13.568 1.71055
lfingers 7.12502
lthumb 12.5456 31.3139
rfemur -25.7006 5.24747 17.0495
rtibia 26.1629
rfoot -16.9107 2.95387
rtoes -9.3008
lfemur -6.12043 -4.37152 -14.7135
ltibia 31.5636
lfoot -15.6813 -13.3328
ltoes -14.8357
313
root -12.1285 18.0001 17.9391 -67.4384 88.2384 -74.9311
lowerback 17.6439 -1.01615 -4.41101
upperback 3.80905 -1.9415 -0.256972
thorax -5.64013 -0.799544 2.64689
lowerneck -4.36837 0.0267924 4.05133
upperneck 0.947668 -0.139382 -1.72473
head 1.02743 -0.0751735 -1.22375
rclavicle -1.98785e-015 0
rhumerus -51.4389 8.85283 -86.0136
rradius 40.9849
rwrist 0.294352
rhand -3.93996 -14.88
rfingers 7.12502
rthumb 21.8116 -43.6708
lclavicle -1.98785e-015 0
lhumerus -40.7058 -7.14918 73.5412
lradius 79.7061
lwrist 7.60336
lhand -13.1656 1.76049
lfingers 7.12502
lthumb 12.9336 31.3397
rfemur -26.0559 5.76326 16.6648
rtibia 25.334
rfoot -16.4815 2.01957
rtoes -8.38587
lfemur -5.96447 -4.42929 -14.657
ltibia 31.9144
lfoot -15.1516 -14.1982
ltoes -15.1014
314
root -11.9586 17.9821 17.9755 -85.6709 88.5348 -93.1732
lowerback 17.6704 -1.1661 -4.36635
upperback 3.79533 -2.12636 -0.183913
thorax -5.65385 -0.889207 2.74035
lowerneck -4.37167 0.00152437 4.1077
upperneck 0.895647 -0.170369 -2.0179
head 1.01224 -0.0953237 -1.32733
rclavicle 1.07344e-014 7.95139e-016
rhumerus -51.5348 8.81565 -85.8418
rradius 40.9058
rwrist 0.371128
rhand -3.84018 -14.8368
rfingers 7.12502
rthumb 21.9074 -43.6165
lclavicle 1.07344e-014 7.95139e-016
lhumerus -40.7636 -6.94218 73.5159
lradius 80.2537
lwrist 8.04815
lhand -12.8566 1.76256
lfingers 7.12502
lthumb 13.2314 31.3226
rfemur -26.3652 6.22428 16.2472
rtibia 24.7332
rfoot -15.9413 1.18238
rtoes -7.34194
lfemur -5.84835 -4.4814 -14.6227
ltibia 32.4177
lfoot -14.6705 -15.1057
ltoes -15.357
315
root -11.7887 17.9544 18.0115 -110.005 88.6537 -117.477
lowerback 17.7092 -1.30935 -4.32347
upperback 3.79338 -2.30312 -0.128582
thorax -5.66253 -0.974842 2.81439
lowerneck -4.33481 -0.0351671 4.17505
upperneck 0.798758 -0.215734 -2.3138
head 0.97542 -0.122558 -1.43384
rclavicle -1.51076e-014 3.97569e-015
rhumerus -51.6445 8.74854 -85.6662
rradius 40.8479
rwrist 0.387434
rhand -3.76605 -14.8185
rfingers 7.12502
rthumb 21.9786 -43.5899
lclavicle -1.51076e-014 3.97569e-015
lhumerus -40.8553 -6.69246 73.4879
lradius 80.6471
lwrist 8.50997
lhand -12.6364 1.75651
lfingers 7.12502
lthumb 13.4437 31.3027
rfemur -26.6122 6.59853 15.8167
rtibia 24.3445
rfoot -15.2286 0.507042
rtoes -6.32973
lfemur -5.7686 -4.53127 -14.6078
ltibia 33.0773
lfoot -14.2289 -16.0613
ltoes -15.5853
316
root -11.6189 17.9165 18.0474 -134.415 88.5245 -141.807
lowerback 17.775 -1.4478 -4.27709
upperback 3.80297 -2.47317 -0.0794981
thorax -5.67411 -1.0569 2.87916
lowerneck -4.30907 -0.0671061 4.21789
upperneck 0.712369 -0.254515 -2.58969
head 0.94374 -0.146016 -1.52997
rclavicle 4.96962e-015 -2.14687e-014
rhumerus -51.7675 8.67034 -85.4815
rradius 40.8174
rwrist 0.338047
rhand -3.70734 -14.8465
rfingers 7.12502
rthumb 22.035 -43.6112
lclavicle 4.96962e-015 -2.14687e-014
lhumerus -40.9866 -6.39485 73.4676
lradius 80.887
lwrist 8.95069
lhand -12.5042 1.75332
lfingers 7.12502
lthumb 13.5711 31.291
rfemur -26.795 6.85538 15.4127
rtibia 24.1809
rfoot -14.2971 0.0676699
rtoes -5.46764
lfemur -5.71767 -4.56246 -14.5888
ltibia 33.8861
lfoot -13.7998 -17.0882
ltoes -15.7797
317
root -11.4496 17.8697 18.0831 -152.725 88.2028 -159.989
lowerback 17.869 -1.57638 -4.23704
upperback 3.82822 -2.63117 -0.0351144
thorax -5.68469 -1.13269 2.94079
lowerneck -4.32077 -0.0912977 4.25074
upperneck 0.656054 -0.283933 -2.8618
head 0.928189 -0.164602 -1.62372
rclavicle 2.88238e-014 9.54166e-015
rhumerus -51.8935 8.57907 -85.2815
rradius 40.8054
rwrist 0.228768
rhand -3.66814 -14.9
rfingers 7.12502
rthumb 22.0726 -43.6603
lclavicle 2.88238e-014 9.54166e-015
lhumerus -41.1502 -6.06763 73.462
lradius 80.9753
lwrist 9.3272
lhand -12.4513 1.79656
lfingers 7.12502
lthumb 13.6221 31.3308
rfemur -26.9229 6.8973 15.0801
rtibia 24.2809
rfoot -13.1024 -0.189217
rtoes -4.60168
lfemur -5.68508 -4.56372 -14.5664
ltibia 34.8236
lfoot -13.343 -18.1915
ltoes -15.9376
318
root -11.2813 17.8166 18.119 -164.779 87.7697 -171.856
lowerback 18.0107 -1.6903 -4.19203
upperback 3.864 -2.76969 0.00615319
thorax -5.71129 -1.19816 2.99404
lowerneck -4.33425 -0.115812 4.25869
upperneck 0.6138 -0.312905 -3.11157
head 0.91714 -0.182561 -1.70623
rclavicle -6.36111e-015 -1.23246e-014
rhumerus -52.0361 8.45868 -85.0666
rradius 40.8099
rwrist 0.0686344
rhand -3.66406 -14.9557
rfingers 7.12502
rthumb 22.0765 -43.7155
lclavicle -6.36111e-015 -1.23246e-014
lhumerus -41.3488 -5.74184 73.4812
lradius 80.9079
lwrist 9.5943
lhand -12.4838 1.90288
lfingers 7.12502
lthumb 13.5907 31.4393
rfemur -26.9775 6.73698 14.8462
rtibia 24.6978
rfoot -11.8823 -0.147748
rtoes -3.8508
lfemur -5.65949 -4.53409 -14.5249
ltibia 35.8728
lfoot -12.8153 -19.365
ltoes -16.0778
319
root -11.1145 17.7606 18.1551 -172.879 87.2892 -179.71
lowerback 18.2184 -1.78749 -4.154
upperback 3.90117 -2.88911 0.0486734
thorax -5.77255 -1.25271 3.05167
lowerneck -4.34365 -0.133411 4.25437
upperneck 0.585403 -0.331636 -3.3638
head 0.910075 -0.195281 -1.78748
rclavicle 3.77691e-015 1.19271e-015
rhumerus -52.2002 8.32166 -84.8348
rradius 40.8276
rwrist -0.122457
rhand -3.70491 -15.0136
rfingers 7.12502
rthumb 22.0373 -43.7781
lclavicle 3.77691e-015 1.19271e-015
lhumerus -41.596 -5.41525 73.5402
lradius 80.6794
lwrist 9.69849
lhand -12.5911 2.08166
lfingers 7.12502
lthumb 13.4874 31.6249
rfemur -26.998 6.4206 14.6944
rtibia 25.4819
rfoot -10.7109 0.0593791
rtoes -3.14563
lfemur -5.64402 -4.47228 -14.468
ltibia 37.0254
lfoot -12.1592 -20.5943
ltoes -16.1767
320
root -10.9501 17.7024 18.1917 -178.463 86.7959 -184.989
lowerback 18.4832 -1.86369 -4.1163
upperback 3.95459 -2.98078 0.0949238
thorax -5.84857 -1.29267 3.11004
lowerneck -4.34248 -0.143477 4.25619
upperneck 0.539935 -0.340019 -3.63485
head 0.896262 -0.202847 -1.8758
rclavicle -3.97569e-015 1.59028e-014
rhumerus -52.3533 8.15934 -84.5853
rradius 40.8436
rwrist -0.31369
rhand -3.77853 -15.085
rfingers 7.12502
rthumb 21.9666 -43.8577
lclavicle -3.97569e-015 1.59028e-014
lhumerus -41.8651 -5.09137 73.6469
lradius 80.2818
lwrist 9.60935
lhand -12.7689 2.33666
lfingers 7.12502
lthumb 13.3159 31.8912
rfemur -26.9971 5.97481 14.6374
rtibia 26.6415
rfoot -9.77844 0.391229
rtoes -2.56277
lfemur -5.64344 -4.38844 -14.3815
ltibia 38.2908
lfoot -11.3421 -21.8558
ltoes -16.2166
